#!OML:ASF E:/inclinewalkrobotboard/Project1/Captureday1/Session1/subject1.ASF
:FULLY-SPECIFIED
:DEGREES
238
root 0 0 0 1.0521660883095516 -3.6809637439073297 1.8627640313347604
lowerback 11.92473997420882 0.8570095986650302 -0.05799030147708148
upperback -4.223770353232188 1.0868037312216257 -0.5562509529889491
thorax -11.297393112930491 0.4961987297583145 -0.8000889826910813
lowerneck -5.664063962386327 1.445707818007921 4.566096191944611
upperneck 18.0790419788726 2.881949916483574 -8.320401733185301
head 6.587292836829997 1.0474441017143223 -3.2222764815666673
rclavicle -8.910363370310082E-16 -3.4423701098627117E-16
rhumerus 20.161422420578297 14.711388199658948 -48.13951474797543
rradius 72.5459273145715
rwrist 26.73660678434978
rhand -34.75414492706808 -57.390656054720694
rfingers 7.125020000000038
rthumb -7.91551582361623 -87.30540258895633
lclavicle 9.089211117633329E-16 -1.7501731096602412E-15
lhumerus 20.852356601531305 -12.75355182700341 45.27996723173075
lradius 69.94744199640985
lwrist -22.27571363830967
lhand -44.77400230440813 -69.71950457915533
lfingers 7.125020000000029
lthumb -17.56542001144878 -40.52120492036604
rfemur -24.894457929263332 -2.2122809902377276 17.208399859650477
rtibia 54.04878672563868
rfoot -29.079567461648303 -16.73283527518092
rtoes -17.671926986937066
lfemur -26.675656000707157 2.4060284364818427 -18.29467113677004
ltibia 54.165508420973666
lfoot -31.06082644305987 -3.5284838320453518
ltoes -19.63380665900794
239
root 0 0 0 1.0521425231965909 -3.681006863206103 1.8627588303430018
lowerback 11.924738942801778 0.8570054822771889 -0.05798061851900349
upperback -4.2237555328284575 1.0868001589057417 -0.5562423190885408
thorax -11.29737545246332 0.49619685748475656 -0.800083988934401
lowerneck -5.66398178729011 1.4456963503782259 4.5661059704520195
upperneck 18.078991766448354 2.8819377772177868 -8.32043656718426
head 6.587262696550135 1.0474391667511185 -3.222290241371621
rclavicle -8.908371670695516E-16 -3.4425135707013576E-16
rhumerus 20.161456532619162 14.711429667269456 -48.13950163058355
rradius 72.54595041597699
rwrist 26.73659414919625
rhand -34.75408172872012 -57.390565639835444
rfingers 7.125020000000038
rthumb -7.9154551071504695 -87.30531165355872
lclavicle 9.091533584206478E-16 -1.7501683617607436E-15
lhumerus 20.852389059620656 -12.753608815777678 45.27991519310814
lradius 69.94748104470241
lwrist -22.275718959324436
lhand -44.77397647471126 -69.7193428166945
lfingers 7.125020000000029
lthumb -17.565394789112126 -40.52104038075106
rfemur -24.894459037439976 -2.2122805611187335 17.20840044676309
rtibia 54.04878597111179
rfoot -29.079570895999396 -16.73283228094657
rtoes -17.671929827979223
lfemur -26.675599911193398 2.406030255128254 -18.294667964416583
ltibia 54.16547681680546
lfoot -31.060823027163217 -3.5284737604402743
ltoes -19.633892621594665
240
root 0 0 0 1.0521237681202127 -3.6810411817158353 1.862754690836534
lowerback 11.924738121626113 0.8570022061063222 -0.057972912080311745
upperback -4.223743737387993 1.0867973157426738 -0.5562354474617388
thorax -11.297361396491736 0.49619536737630066 -0.8000800143786457
lowerneck -5.663916386544937 1.445687223755979 4.566113753139903
upperneck 18.07895180383352 2.8819281162316654 -8.320464290949769
head 6.587238708773066 1.0474352392748378 -3.2223011925549185
rclavicle -8.906786167632435E-16 -3.4426277357397465E-16
rhumerus 20.16148368666016 14.711462676966798 -48.13949118981384
rradius 72.54596880501646
rwrist 26.7365840901873
rhand -34.75403142058067 -57.39049366518223
rfingers 7.125020000000038
rthumb -7.915406774689658 -87.30523926459705
lclavicle 9.093382320558877E-16 -1.7501645764388468E-15
lhumerus 20.8524148959373 -12.75365417882578 45.27987377100201
lradius 69.94751212680579
lwrist -22.275723194193777
lhand -44.77395591402948 -69.71921405278783
lfingers 7.125020000000029
lthumb -17.56537471189846 -40.520909406017424
rfemur -24.894459919411652 -2.2122802193915367 17.20840091399862
rtibia 54.048785370287476
rfoot -29.079573629744168 -16.73282989748993
rtoes -17.671932089649516
lfemur -26.675555262579913 2.406031703097924 -18.29466543936307
ltibia 54.16545165928693
lfoot -31.060820307680736 -3.5284657433581654
ltoes -19.633961047778804
241
root 0 0 0 1.0521088425670002 -3.681068493231692 1.8627513964869324
lowerback 11.924737467937517 0.8569995988790977 -0.057966779223172976
upperback -4.223734350326923 1.0867950531030621 -0.5562299788935062
thorax -11.29735021035851 0.4961941815286394 -0.8000768513066909
lowerneck -5.663864340322137 1.4456799608239694 4.566119946806278
upperneck 18.07892000138801 2.881920428154656 -8.32048635391064
head 6.5872196191801 1.0474321138411005 -3.2223099076592687
rclavicle -8.905524162865901E-16 -3.442718582104468E-16
rhumerus 20.161505299308185 14.711488950623092 -48.13948288043493
rradius 72.54598344121234
rwrist 26.73657608315059
rhand -34.753991378496835 -57.3904363770401
rfingers 7.125020000000038
rthumb -7.9153683051227315 -87.30518164671876
lclavicle 9.094853806467825E-16 -1.750161560034318E-15
lhumerus 20.852435459244614 -12.753690283822293 45.27984080293388
lradius 69.94753686525362
lwrist -22.2757265644413
lhand -44.77393954936924 -69.71911156748433
lfingers 7.125020000000029
lthumb -17.565358732040927 -40.52080516093061
rfemur -24.894460621224038 -2.212279947326422 17.208401285829012
rtibia 54.0487848918087
rfoot -29.07957580547441 -16.73282800040255
rtoes -17.6719338899976
lfemur -26.675519724935683 2.4060328555616417 -18.294663429671164
ltibia 54.16543163532279
lfoot -31.06081814317939 -3.528459362490336
ltoes -19.63401550978652
